# xmcd
#
# Track frame offsets:
#	150
#	10565
#	32332
#	43055
#	54033
#	67019
#	86153
#	98773
#	115438
#	128438
#
# Disc length: 1905 seconds
#
# Revision: 0
# Processed by: cddbd v1.5.2PL0 Copyright (c) Steve Scherf et al.
# Submitted via: audiograbber 1.83.01
#
DISCID=72076f0a
DTITLE=R&B Greats - Disc 3
DYEAR=2007
DGENRE=R&B
TTITLE0=James Brown - Papa's Got A Brand New Bag (live)
TTITLE1=Gene Chandler - Duke Of Earl
TTITLE2=Ike and Tina Turner - Nut Bush City Limits
TTITLE3=Mary Wells - My Guy
TTITLE4=The Dells - Oh What A Night
TTITLE5=Teddy Pendergrass - Love T.K.O.
TTITLE6=The Drifters - Save The Last Dance For Me
TTITLE7=The Stylists - Betcha By Golly, Wow (live)
TTITLE8=Billy Preston - Outa-Space
TTITLE9=The Spinners - I'll Be Around (live)
EXTD=
EXTT0=
EXTT1=
EXTT2=
EXTT3=
EXTT4=
EXTT5=
EXTT6=
EXTT7=
EXTT8=
EXTT9=
PLAYORDER=
